<?xml version="1.0" standalone="no"?>
<!DOCTYPE svg PUBLIC "-//W3C//DTD SVG 20010904//EN"
 "http://www.w3.org/TR/2001/REC-SVG-20010904/DTD/svg10.dtd">
<svg version="1.0" xmlns="http://www.w3.org/2000/svg"
 width="76.000000pt" height="76.000000pt" viewBox="0 0 76.000000 76.000000"
 preserveAspectRatio="xMidYMid meet">
<metadata>
Created by potrace 1.11, written by Peter Selinger 2001-2013
</metadata>
<g transform="translate(0.000000,76.000000) scale(0.100000,-0.100000)"
fill="#000000" stroke="none">
<path d="M368 680 c-28 -22 -71 -103 -88 -167 -12 -47 -12 -47 -115 -44 -45 1
-71 -11 -61 -28 4 -6 38 -11 83 -11 l76 0 -8 -32 c-11 -52 -13 -199 -3 -245 5
-25 21 -53 38 -70 21 -19 26 -29 17 -35 -7 -4 30 -8 82 -8 52 0 91 3 88 7 -11
10 24 43 45 43 47 0 92 94 56 116 -7 4 -73 9 -148 10 -74 1 -137 2 -138 3 -2
0 16 23 40 50 24 27 59 76 77 110 l32 61 67 1 c117 1 142 4 142 14 0 6 -34 11
-78 11 -137 3 -124 -3 -116 52 17 104 -3 182 -45 182 -10 0 -30 -9 -43 -20z
m57 -91 c3 -38 -8 -105 -18 -116 -3 -2 -22 -5 -44 -6 -32 -1 -38 1 -36 18 7
59 34 132 56 156 18 19 21 20 29 4 6 -9 11 -34 13 -56z m-39 -160 c6 -10 -45
-109 -76 -149 l-20 -25 0 31 c0 48 19 137 31 145 16 9 58 8 65 -2z m186 -264
c-4 -24 -39 -62 -48 -53 -3 4 -1 23 6 43 8 25 17 35 28 33 11 -2 16 -11 14
-23z m-211 -13 c0 -4 2 -17 5 -29 3 -20 0 -23 -26 -23 -25 0 -30 4 -30 23 0
13 2 26 5 28 7 8 45 8 46 1z"/>
</g>
</svg>
